<?xml version="1.0" encoding="utf-8"?>
<!-- Generator: Adobe Illustrator 16.0.0, SVG Export Plug-In . SVG Version: 6.00 Build 0)  -->
<!DOCTYPE svg PUBLIC "-//W3C//DTD SVG 1.1//EN" "http://www.w3.org/Graphics/SVG/1.1/DTD/svg11.dtd">
<svg version="1.1" id="Layer_1" xmlns="http://www.w3.org/2000/svg" xmlns:xlink="http://www.w3.org/1999/xlink" x="0px" y="0px"
	 width="58px" height="24px" viewBox="0 0 58 24" enable-background="new 0 0 58 24" xml:space="preserve">
<g>
	<g>
		<path fill="#CA6878" d="M3.444,6.327c-0.409,0-0.788,0.06-1.139,0.118V0H0v16.811l0.613,0.354
			c0.146,0.059,1.459,0.768,2.832,0.768c1.372,0,2.686-0.709,2.831-0.768l0.613-0.354V7.538L6.392,7.184
			C6.275,7.095,5.137,6.327,3.444,6.327z M4.583,15.363C4.232,15.481,3.824,15.6,3.444,15.6s-0.788-0.118-1.139-0.236V8.867
			c0.292-0.089,0.671-0.178,1.139-0.178c0.467,0,0.846,0.089,1.138,0.178V15.363z M11.237,6.209c-1.635,0-2.715,0.768-2.86,0.856
			L7.91,7.391v9.597l0.584,0.325c0.146,0.059,1.43,0.768,2.744,0.768c1.343,0,2.627-0.709,2.744-0.768l0.613-0.325V7.391
			l-0.496-0.325C13.981,6.977,12.901,6.209,11.237,6.209z M12.346,15.511c-0.35,0.148-0.729,0.236-1.109,0.236
			c-0.35,0-0.759-0.088-1.08-0.236V8.719c0.263-0.089,0.642-0.177,1.08-0.177s0.817,0.088,1.109,0.177V15.511z M19.059,6.327
			c-1.372,0-2.685,0.709-2.831,0.797l-0.613,0.325v9.493l0.496,0.354c0.117,0.089,1.255,0.826,2.948,0.826
			c0.409,0,0.905-0.029,1.255-0.088l0.003,3.399c-0.292,0.088-0.792,0.203-1.259,0.203c-0.467,0-0.934-0.089-1.226-0.178v-0.826
			h-2.219v2.155l0.496,0.354C16.228,23.232,17.366,24,19.059,24s2.832-0.768,2.948-0.856l0.497-0.354V7.449L21.92,7.124
			C21.774,7.036,20.431,6.327,19.059,6.327z M20.256,15.584c-0.292,0.118-0.73,0.207-1.197,0.207c-0.438,0-0.934-0.089-1.197-0.207
			V8.926c0.321-0.147,0.847-0.236,1.197-0.236c0.379,0,0.847,0.089,1.197,0.236V15.584z M26.969,6.327
			c-1.372,0-2.686,0.709-2.832,0.797l-0.613,0.325v9.493l0.496,0.354c0.117,0.089,1.255,0.826,2.948,0.826
			c0.408,0,0.905-0.029,1.255-0.088l-0.117,3.425c-0.292,0.089-0.671,0.178-1.138,0.178c-0.467,0-0.935-0.089-1.226-0.178v-0.826
			h-2.218v2.155l0.496,0.354C24.138,23.232,25.276,24,26.969,24c1.693,0,2.831-0.768,2.948-0.856l0.496-0.354V7.449L29.83,7.124
			C29.684,7.036,28.341,6.327,26.969,6.327z M28.166,15.584c-0.292,0.118-0.73,0.207-1.197,0.207c-0.438,0-0.935-0.089-1.197-0.207
			V8.926c0.321-0.147,0.846-0.236,1.197-0.236c0.379,0,0.847,0.089,1.197,0.236V15.584z M46.875,6.209
			c-1.635,0-2.715,0.768-2.86,0.856l-0.467,0.325v9.597l0.584,0.325c0.146,0.059,1.431,0.768,2.743,0.768
			c1.343,0,2.627-0.709,2.744-0.768l0.613-0.325V7.391l-0.496-0.325C49.619,6.977,48.539,6.209,46.875,6.209z M47.984,15.511
			c-0.35,0.148-0.729,0.236-1.109,0.236c-0.35,0-0.759-0.088-1.08-0.236V8.719c0.264-0.089,0.643-0.177,1.08-0.177
			s0.817,0.088,1.109,0.177V15.511z M40.299,15.669c-0.276,0.089-0.668,0.178-1.106,0.178c-0.438,0-0.83-0.089-1.105-0.178V6.771
			h-2.213v8.897c-0.277,0.089-0.668,0.178-1.107,0.178c-0.438,0-0.828-0.089-1.105-0.178V6.771h-2.213v10.227l0.46,0.324
			c0.117,0.089,1.219,0.856,2.854,0.856c0.935,0,1.722-0.266,2.218-0.473c0.496,0.207,1.285,0.473,2.219,0.473
			c1.635,0,2.736-0.768,2.854-0.856l0.459-0.324V6.771h-2.212V15.669z M57.491,7.065c-0.116-0.089-1.202-0.856-2.866-0.856
			c-1.635,0-2.682,0.768-2.828,0.856l-0.435,0.325v10.293h2.212V8.719c0.277-0.089,0.654-0.177,1.092-0.177s0.845,0.088,1.121,0.177
			v8.965H58V7.391L57.491,7.065z"/>
	</g>
</g>
</svg>
