<?xml version="1.0" encoding="utf-8"?>
<!-- Generator: Adobe Illustrator 16.0.0, SVG Export Plug-In . SVG Version: 6.00 Build 0)  -->
<!DOCTYPE svg PUBLIC "-//W3C//DTD SVG 1.1//EN" "http://www.w3.org/Graphics/SVG/1.1/DTD/svg11.dtd">
<svg version="1.1" id="Layer_1" xmlns="http://www.w3.org/2000/svg" xmlns:xlink="http://www.w3.org/1999/xlink" x="0px" y="0px"
	 width="61.998px" height="16.01px" viewBox="0 0 61.998 16.01" enable-background="new 0 0 61.998 16.01" xml:space="preserve">
<g>
	<g>
		<path fill="#CA6878" d="M48.432,2.522c-1.551,0-2.777,0.399-3.716,0.581l-0.289,2.288c0.47-0.218,1.948-0.617,3.176-0.654
			c1.227-0.036,1.948,0.218,1.695,1.235c-3.644,0-6.098,0.726-6.603,3.014c-0.723,3.922,3.717,3.812,5.484,2.105l-0.217,0.944h3.247
			l1.408-6.245C53.194,3.14,50.705,2.486,48.432,2.522z M48.648,8.914c-0.181,0.834-0.865,1.198-1.695,1.234
			c-0.722,0.036-1.372-0.582-0.902-1.308c0.361-0.617,1.371-0.763,1.984-0.763h0.794C48.757,8.369,48.72,8.623,48.648,8.914z
			 M52.709,12.036h3.299l2.72-11.983h-3.332L52.709,12.036z M40.24,0.09h-6.039l-2.677,11.946h3.508l0.905-3.958h2.495
			c2.459,0,4.484-1.452,5.026-3.922C44.073,1.36,41.977,0.09,40.24,0.09z M40.133,4.156c-0.218,0.908-1.158,1.635-2.062,1.635
			h-1.627l0.724-3.269h1.736C39.807,2.522,40.35,3.249,40.133,4.156z M16.805,2.522c-1.532,0-2.745,0.399-3.636,0.581l-0.285,2.288
			c0.428-0.218,1.89-0.617,3.101-0.654c1.213-0.036,1.926,0.218,1.712,1.235c-3.601,0-6.023,0.726-6.523,3.014
			c-0.713,3.922,3.672,3.812,5.382,2.105l-0.213,0.944h3.243l1.39-6.245C21.546,3.14,19.05,2.486,16.805,2.522z M17.054,8.914
			c-0.178,0.834-0.891,1.198-1.71,1.234c-0.713,0.036-1.319-0.582-0.855-1.308c0.356-0.617,1.354-0.763,1.925-0.763h0.819
			C17.161,8.369,17.09,8.623,17.054,8.914z M29.328,2.694l-3.174,5.563l-0.522-5.563h-3.244l1.325,9.4l-2.371,3.915h3.627
			l7.706-13.315H29.328z M8.737,0.09H2.683L0,12.036h3.554l0.869-3.958h2.538c2.429,0,4.46-1.452,5.004-3.922
			C12.581,1.36,10.515,0.09,8.737,0.09z M8.629,4.156c-0.218,0.908-1.124,1.635-2.03,1.635H4.931l0.762-3.269h1.74
			C8.303,2.522,8.883,3.249,8.629,4.156z M58.896,0.189h0.544v1.412h0.219V0.189h0.546V0h-1.309V0.189z M61.704,0l-0.396,1.114
			c-0.039,0.112-0.069,0.198-0.088,0.256c-0.017-0.052-0.043-0.131-0.079-0.236L60.749,0h-0.327v1.602h0.21V0.239l0.478,1.362h0.196
			l0.482-1.341v1.341h0.21V0H61.704z"/>
	</g>
</g>
</svg>
