<?xml version="1.0" encoding="utf-8"?>
<!-- Generator: Adobe Illustrator 16.0.0, SVG Export Plug-In . SVG Version: 6.00 Build 0)  -->
<!DOCTYPE svg PUBLIC "-//W3C//DTD SVG 1.1//EN" "http://www.w3.org/Graphics/SVG/1.1/DTD/svg11.dtd">
<svg version="1.1" id="Layer_1" xmlns="http://www.w3.org/2000/svg" xmlns:xlink="http://www.w3.org/1999/xlink" x="0px" y="0px"
	 width="66px" height="14px" viewBox="0 0 66 14" enable-background="new 0 0 66 14" xml:space="preserve">
<g>
	<g>
		<path fill="#FFFFFF" d="M8.556,0.209c-3.69-0.935-7.43,1.348-8.35,5.099c-0.921,3.75,1.326,7.548,5.017,8.483
			c3.691,0.935,7.431-1.348,8.352-5.098C14.495,4.943,12.249,1.145,8.556,0.209z M9.927,6.003C9.829,6.685,9.457,7.015,8.962,7.131
			C9.64,7.489,9.986,8.039,9.657,8.993c-0.408,1.185-1.377,1.284-2.666,1.037l-0.313,1.273l-0.756-0.191L6.23,9.855
			c-0.196-0.05-0.396-0.102-0.603-0.159l-0.31,1.263l-0.755-0.191l0.312-1.275C4.699,9.446,4.519,9.397,4.336,9.351L3.352,9.102
			l0.376-0.88c0,0,0.557,0.151,0.55,0.14c0.214,0.054,0.309-0.088,0.346-0.183l0.495-2.014c0.027,0.007,0.055,0.014,0.079,0.021
			C5.168,6.173,5.141,6.165,5.12,6.16l0.353-1.438C5.482,4.56,5.426,4.354,5.12,4.275c0.012-0.008-0.549-0.139-0.549-0.139
			l0.201-0.82l1.043,0.265L5.814,3.585C5.97,3.625,6.132,3.662,6.296,3.7l0.31-1.261l0.756,0.191L7.058,3.867
			c0.203,0.047,0.407,0.095,0.606,0.145l0.301-1.229l0.757,0.191L8.412,4.236C9.367,4.57,10.065,5.071,9.927,6.003z M27.496,3.297
			c0.244,0,0.473-0.045,0.688-0.141c0.215-0.095,0.405-0.221,0.566-0.38c0.163-0.16,0.294-0.349,0.393-0.567s0.148-0.452,0.148-0.7
			c0-0.448-0.146-0.782-0.436-1.001c-0.291-0.219-0.616-0.327-0.977-0.327c-0.244,0-0.474,0.047-0.689,0.141
			c-0.215,0.096-0.403,0.223-0.566,0.381C26.46,0.862,26.33,1.051,26.23,1.27c-0.099,0.22-0.147,0.452-0.147,0.699
			c0,0.45,0.145,0.784,0.437,1.001C26.809,3.188,27.135,3.297,27.496,3.297z M56.215,3.297c0.244,0,0.474-0.045,0.69-0.141
			c0.214-0.095,0.402-0.221,0.566-0.38c0.162-0.16,0.293-0.349,0.391-0.567s0.149-0.452,0.149-0.7c0-0.448-0.146-0.782-0.437-1.001
			s-0.616-0.327-0.978-0.327c-0.243,0-0.473,0.047-0.688,0.141c-0.214,0.096-0.404,0.223-0.566,0.381
			c-0.164,0.16-0.295,0.349-0.394,0.567c-0.098,0.22-0.148,0.452-0.148,0.699c0,0.45,0.146,0.784,0.437,1.001
			C55.529,3.188,55.855,3.297,56.215,3.297z M6.289,7.082l-0.415,1.69C6.385,8.901,7.966,9.418,8.2,8.464
			C8.444,7.469,6.801,7.212,6.289,7.082z M6.855,4.774L6.478,6.308c0.427,0.108,1.743,0.549,1.956-0.318
			C8.656,5.084,7.282,4.883,6.855,4.774z M22.654,5.353c-0.27-0.342-0.606-0.613-1.014-0.814c-0.406-0.2-0.889-0.302-1.447-0.302
			c-0.268,0-0.517,0.03-0.75,0.09c-0.232,0.06-0.465,0.142-0.696,0.247l1.08-4.57l-2.702,0.426l-3.018,12.879
			c0.337,0.166,0.695,0.297,1.073,0.39c0.377,0.095,0.734,0.166,1.072,0.214c0.336,0.046,0.637,0.073,0.897,0.079
			c0.261,0.005,0.446,0.008,0.551,0.008c0.812,0,1.569-0.156,2.266-0.47c0.697-0.312,1.302-0.736,1.814-1.273
			c0.512-0.539,0.915-1.169,1.212-1.896c0.297-0.727,0.444-1.497,0.444-2.312c0-0.531-0.063-1.027-0.19-1.488
			C23.118,6.098,22.919,5.696,22.654,5.353z M20.629,9.569c-0.15,0.426-0.357,0.806-0.618,1.144
			c-0.262,0.337-0.573,0.606-0.935,0.807c-0.36,0.199-0.744,0.301-1.15,0.301h-0.313c-0.083,0-0.151-0.003-0.211-0.01
			c-0.056-0.007-0.112-0.015-0.164-0.027c-0.052-0.011-0.113-0.022-0.183-0.035l1.15-4.854c0.21-0.188,0.444-0.312,0.707-0.373
			c0.262-0.057,0.473-0.089,0.636-0.089c0.499,0,0.843,0.161,1.029,0.479c0.186,0.32,0.279,0.762,0.279,1.329
			C20.857,8.701,20.781,9.145,20.629,9.569z M54.557,4.433l-2.18,9.318h2.583l2.197-9.318H54.557z M51.25,5.265
			c-0.298-0.342-0.675-0.609-1.133-0.797c-0.461-0.189-0.993-0.285-1.598-0.285c-0.824,0-1.559,0.181-2.196,0.54
			c-0.639,0.362-1.181,0.825-1.621,1.393c-0.442,0.566-0.778,1.204-1.004,1.913c-0.227,0.708-0.339,1.417-0.339,2.127
			c0,0.566,0.073,1.083,0.226,1.549c0.152,0.467,0.375,0.872,0.672,1.214c0.296,0.343,0.671,0.607,1.124,0.797
			c0.454,0.188,0.989,0.284,1.604,0.284h0.001c0.849,0,1.596-0.181,2.24-0.541c0.646-0.36,1.184-0.823,1.613-1.39
			c0.431-0.568,0.757-1.207,0.977-1.913c0.22-0.71,0.33-1.42,0.33-2.127c0-0.566-0.074-1.084-0.227-1.55
			C51.77,6.011,51.545,5.608,51.25,5.265z M49.42,9.454c-0.1,0.408-0.248,0.784-0.446,1.125c-0.198,0.343-0.442,0.627-0.731,0.851
			c-0.291,0.226-0.628,0.337-1.012,0.337c-0.488,0-0.824-0.166-1.012-0.495c-0.185-0.331-0.278-0.792-0.278-1.384
			c0-0.366,0.048-0.752,0.147-1.159s0.247-0.782,0.445-1.125c0.197-0.343,0.441-0.626,0.732-0.852
			c0.289-0.223,0.628-0.336,1.01-0.336c0.488,0,0.826,0.166,1.013,0.496c0.187,0.331,0.279,0.792,0.279,1.382
			C49.568,8.66,49.518,9.048,49.42,9.454z M41.014,6.416c0.36,0,0.666,0.038,0.915,0.116c0.25,0.076,0.491,0.161,0.724,0.257
			l0.891-2.057c-0.339-0.165-0.713-0.296-1.126-0.397c-0.412-0.102-0.88-0.151-1.403-0.151c-0.837,0-1.597,0.154-2.275,0.461
			c-0.682,0.308-1.26,0.728-1.735,1.257c-0.477,0.532-0.845,1.152-1.1,1.861c-0.256,0.709-0.384,1.466-0.384,2.269
			c0,0.53,0.074,1.039,0.22,1.522c0.145,0.484,0.38,0.906,0.706,1.268c0.325,0.36,0.738,0.646,1.238,0.859
			c0.499,0.211,1.109,0.318,1.83,0.318c0.547,0,1.018-0.051,1.414-0.149c0.395-0.102,0.755-0.218,1.081-0.346l-0.192-2.108
			c-0.245,0.105-0.523,0.194-0.838,0.266c-0.312,0.07-0.639,0.105-0.977,0.105c-0.686,0-1.157-0.185-1.412-0.558
			c-0.257-0.372-0.385-0.859-0.385-1.462c0-1.016,0.254-1.826,0.759-2.428C39.471,6.718,40.153,6.416,41.014,6.416z M23.659,13.751
			h2.581l2.198-9.318h-2.6L23.659,13.751z M32.233,6.594h2.878l0.523-2.161h-2.896l0.664-2.747l-2.704,0.426l-1.71,7.334
			c-0.139,0.603-0.22,1.175-0.244,1.719c-0.022,0.543,0.06,1.025,0.244,1.443c0.188,0.42,0.5,0.751,0.942,0.993
			c0.443,0.241,1.064,0.362,1.866,0.362c0.559,0,1.041-0.046,1.448-0.142c0.407-0.094,0.784-0.206,1.134-0.336l-0.193-2.021
			c-0.267,0.096-0.531,0.169-0.792,0.222c-0.262,0.053-0.533,0.08-0.812,0.08c-0.339,0-0.596-0.048-0.776-0.143
			c-0.181-0.094-0.306-0.227-0.375-0.398c-0.069-0.171-0.099-0.374-0.086-0.611c0.011-0.236,0.051-0.489,0.122-0.762L32.233,6.594z
			 M65.53,5.425c-0.518-0.804-1.456-1.206-2.817-1.206c-0.463,0-0.88,0.021-1.246,0.062c-0.365,0.042-0.698,0.095-0.993,0.161
			c-0.298,0.063-0.564,0.135-0.804,0.211c-0.237,0.075-0.457,0.146-0.653,0.204l-2.11,8.894h2.599l1.692-7.21
			c0.35-0.071,0.691-0.108,1.028-0.108c0.349,0,0.606,0.068,0.776,0.204c0.168,0.138,0.276,0.315,0.322,0.532
			c0.048,0.22,0.05,0.474,0.009,0.761c-0.04,0.291-0.096,0.588-0.166,0.896l-1.15,4.926h2.598l1.188-5.031
			C66.137,7.326,66.047,6.228,65.53,5.425z"/>
	</g>
</g>
</svg>
