<?xml version="1.0" encoding="utf-8"?>
<!-- Generator: Adobe Illustrator 16.0.0, SVG Export Plug-In . SVG Version: 6.00 Build 0)  -->
<!DOCTYPE svg PUBLIC "-//W3C//DTD SVG 1.1//EN" "http://www.w3.org/Graphics/SVG/1.1/DTD/svg11.dtd">
<svg version="1.1" id="Layer_1" xmlns="http://www.w3.org/2000/svg" xmlns:xlink="http://www.w3.org/1999/xlink" x="0px" y="0px"
	 width="170.998px" height="69.999px" viewBox="0 0 170.998 69.999" enable-background="new 0 0 170.998 69.999"
	 xml:space="preserve">
<g>
	<g>
		<path fill="#00FF55" d="M10.002,18.016c-1.198,0-1.986,0.61-3.013,0.782V0H0v49.028l1.797,1.035
			c0.428,0.172,4.278,2.238,8.299,2.238s7.871-2.066,8.299-2.238l1.609-1.035V21.985l-1.267-1.034
			C18.395,20.692,14.964,18.016,10.002,18.016z M13.015,44.808c-1.026,0.346-1.807,0.689-2.919,0.689
			c-1.112,0-2.078-0.344-3.105-0.689V25.861c0.855-0.259,1.643-0.893,3.011-0.893c1.369,0,2.157,0.633,3.013,0.893V44.808z
			 M32.937,18.015c-4.791,0-7.957,2.333-8.384,2.591l-1.556,1.417v26.991l1.898,1.479c0.428,0.172,4.192,2.239,8.042,2.239
			c3.936,0,7.7-2.067,8.042-2.239l2.015-1.479V22.023l-1.673-1.417C40.979,20.348,37.813,18.015,32.937,18.015z M36.003,45.239
			c-1.026,0.432-1.953,0.689-3.066,0.689c-1.026,0-1.993-0.258-2.934-0.689V25.43c0.77-0.259,1.65-0.517,2.934-0.517
			c1.284,0,2.21,0.258,3.066,0.517V45.239z M55.958,18.016c-4.021,0-7.965,2.505-8.393,2.763l-1.576,1.225v26.97l1.234,1.476
			c0.342,0.258,3.679,2.411,8.641,2.411c1.198,0,2.1-0.086,3.127-0.259l0.01,9.915c-0.856,0.258-1.768,0.593-3.137,0.593
			c-1.369,0-2.02-0.258-2.875-0.517v-2.577h-7v5.901l1.234,1.585c0.342,0.258,3.679,2.498,8.641,2.498
			c4.961,0,8.299-2.24,8.641-2.498l1.51-1.585V22.003l-1.767-1.225C63.821,20.521,59.979,18.016,55.958,18.016z M58.986,45.452
			c-0.856,0.344-1.752,0.604-3.122,0.604c-1.283,0-2.075-0.26-2.845-0.604V26.033c0.941-0.431,1.818-0.689,2.845-0.689
			c1.112,0,2.095,0.258,3.122,0.689V45.452z M117.984,45.605c-0.811,0.259-1.823,0.611-3.106,0.611
			c-1.284,0-2.071-0.353-2.882-0.611V19.983h-7v25.56c-0.811,0.259-1.806,0.674-3.09,0.674c-1.283,0-2.127-0.415-2.938-0.674v-25.56
			h-6.977v29.025l1.534,1.515c0.343,0.259,3.572,2.497,8.363,2.497c2.738,0,5.079-1.057,6.533-1.659
			c1.454,0.603,3.733,1.659,6.472,1.659c4.79,0,8.021-2.238,8.363-2.497l1.726-1.515V19.983h-6.999V45.605z M169.508,20.606
			c-0.342-0.258-3.674-2.609-8.55-2.609c-4.792,0-7.713,2.351-8.141,2.609l-1.837,1.396v29.97h7.048V25.617
			c0.811-0.259,1.667-0.705,2.949-0.705c1.283,0,2.193,0.446,3.004,0.705v26.354h7.017v-29.97L169.508,20.606z M78.926,18.016
			c-4.021,0-7.934,2.505-8.361,2.763l-1.576,1.225v26.97l1.234,1.476c0.342,0.258,3.679,2.411,8.641,2.411
			c1.198,0,2.1-0.086,3.127-0.259l0.01,9.915c-0.856,0.258-1.768,0.593-3.137,0.593c-1.369,0-2.02-0.258-2.875-0.517v-2.577h-7
			v5.901l1.234,1.585c0.342,0.258,3.679,2.498,8.641,2.498c4.961,0,8.299-2.24,8.641-2.498l1.51-1.585V22.003l-1.767-1.225
			C86.821,20.521,82.947,18.016,78.926,18.016z M81.986,45.452c-0.856,0.344-1.752,0.604-3.122,0.604
			c-1.283,0-2.075-0.26-2.845-0.604V26.033c0.941-0.431,1.818-0.689,2.845-0.689c1.112,0,2.095,0.258,3.122,0.689V45.452z
			 M137.937,18.015c-4.79,0-7.956,2.333-8.384,2.591l-1.557,1.417v26.991l1.899,1.479c0.428,0.172,4.191,2.239,8.041,2.239
			c3.937,0,7.701-2.067,8.043-2.239l2.016-1.479V22.023l-1.674-1.417C145.979,20.348,142.813,18.015,137.937,18.015z
			 M141.003,45.239c-1.026,0.432-1.953,0.689-3.066,0.689c-1.026,0-1.992-0.258-2.933-0.689V25.43
			c0.77-0.259,1.649-0.517,2.933-0.517c1.284,0,2.211,0.258,3.066,0.517V45.239z"/>
	</g>
</g>
</svg>
