<?xml version="1.0" encoding="utf-8"?>
<!-- Generator: Adobe Illustrator 16.0.0, SVG Export Plug-In . SVG Version: 6.00 Build 0)  -->
<!DOCTYPE svg PUBLIC "-//W3C//DTD SVG 1.1//EN" "http://www.w3.org/Graphics/SVG/1.1/DTD/svg11.dtd">
<svg version="1.1" id="Layer_1" xmlns="http://www.w3.org/2000/svg" xmlns:xlink="http://www.w3.org/1999/xlink" x="0px" y="0px"
	 width="90px" height="37px" viewBox="0 0 90 37" enable-background="new 0 0 90 37" xml:space="preserve">
<g>
	<g>
		<path fill="#C02942" d="M5.345,9.754c-0.634,0-1.223,0.091-1.767,0.182V0H0v25.916l0.951,0.547
			c0.227,0.09,2.265,1.184,4.394,1.184s4.167-1.094,4.394-1.184l0.951-0.547V11.621l-0.77-0.546
			C9.738,10.938,7.972,9.754,5.345,9.754z M7.111,23.684c-0.544,0.183-1.178,0.364-1.767,0.364s-1.223-0.182-1.767-0.364V13.669
			c0.453-0.137,1.042-0.273,1.767-0.273s1.313,0.137,1.767,0.273V23.684z M17.473,9.572c-2.536,0-4.212,1.184-4.438,1.32
			l-0.725,0.501v14.796l0.906,0.5c0.227,0.092,2.219,1.184,4.257,1.184c2.084,0,4.077-1.092,4.258-1.184l0.951-0.5V11.393
			l-0.77-0.501C21.73,10.755,20.055,9.572,17.473,9.572z M19.194,23.912c-0.543,0.229-1.132,0.365-1.722,0.365
			c-0.543,0-1.177-0.137-1.675-0.365v-10.47c0.407-0.137,0.996-0.273,1.675-0.273c0.68,0,1.269,0.137,1.722,0.273V23.912z
			 M29.646,9.754c-2.129,0-4.167,1.092-4.394,1.229l-0.951,0.501v14.635l0.77,0.547c0.181,0.137,1.948,1.274,4.575,1.274
			c0.634,0,1.404-0.046,1.948-0.137l0.005,5.241c-0.453,0.136-1.228,0.312-1.953,0.312c-0.725,0-1.449-0.137-1.902-0.272V31.81
			h-3.443v3.323l0.77,0.546C25.253,35.816,27.02,37,29.646,37s4.394-1.184,4.575-1.32l0.77-0.546V11.484l-0.906-0.501
			C33.859,10.846,31.775,9.754,29.646,9.754z M31.504,24.025c-0.453,0.182-1.132,0.318-1.857,0.318
			c-0.679,0-1.449-0.137-1.857-0.318V13.76c0.499-0.228,1.313-0.364,1.857-0.364c0.589,0,1.313,0.137,1.857,0.364V24.025z
			 M41.957,9.754c-2.128,0-4.167,1.092-4.393,1.229l-0.952,0.501v14.635l0.77,0.547c0.182,0.137,1.947,1.274,4.575,1.274
			c0.634,0,1.404-0.046,1.948-0.137l-0.181,5.281c-0.453,0.136-1.042,0.272-1.767,0.272s-1.45-0.137-1.902-0.272V31.81h-3.442v3.323
			l0.77,0.546C37.564,35.816,39.33,37,41.957,37s4.394-1.184,4.575-1.32l0.77-0.546V11.484l-0.906-0.501
			C46.169,10.846,44.086,9.754,41.957,9.754z M43.814,24.025c-0.453,0.182-1.132,0.318-1.857,0.318c-0.679,0-1.45-0.137-1.857-0.318
			V13.76c0.498-0.228,1.313-0.364,1.857-0.364c0.589,0,1.314,0.137,1.857,0.364V24.025z M72.872,9.572
			c-2.537,0-4.213,1.184-4.439,1.32l-0.725,0.501v14.796l0.906,0.5c0.227,0.092,2.219,1.184,4.258,1.184
			c2.082,0,4.076-1.092,4.257-1.184l0.951-0.5V11.393l-0.771-0.501C77.128,10.755,75.453,9.572,72.872,9.572z M74.592,23.912
			c-0.543,0.229-1.133,0.365-1.721,0.365c-0.544,0-1.179-0.137-1.677-0.365v-10.47c0.407-0.137,0.997-0.273,1.677-0.273
			c0.679,0,1.268,0.137,1.721,0.273V23.912z M62.655,24.156c-0.429,0.137-1.037,0.273-1.716,0.273c-0.68,0-1.288-0.137-1.717-0.273
			V10.439h-3.434v13.716c-0.43,0.137-1.037,0.273-1.717,0.273s-1.287-0.137-1.717-0.273V10.439h-3.434v15.765l0.713,0.501
			c0.182,0.136,1.893,1.319,4.428,1.319c1.45,0,2.673-0.409,3.443-0.729c0.77,0.319,1.992,0.729,3.441,0.729
			c2.537,0,4.247-1.184,4.428-1.319l0.713-0.501V10.439h-3.433V24.156z M89.21,10.892c-0.182-0.137-1.866-1.32-4.447-1.32
			c-2.537,0-4.162,1.184-4.389,1.32L79.7,11.393v15.868h3.433v-13.82c0.43-0.137,1.016-0.273,1.694-0.273s1.31,0.137,1.739,0.273
			v13.82H90V11.393L89.21,10.892z"/>
	</g>
</g>
</svg>
