<?xml version="1.0" encoding="utf-8"?>
<!-- Generator: Adobe Illustrator 16.0.0, SVG Export Plug-In . SVG Version: 6.00 Build 0)  -->
<!DOCTYPE svg PUBLIC "-//W3C//DTD SVG 1.1//EN" "http://www.w3.org/Graphics/SVG/1.1/DTD/svg11.dtd">
<svg version="1.1" xmlns="http://www.w3.org/2000/svg" xmlns:xlink="http://www.w3.org/1999/xlink" x="0px" y="0px" width="535px"
	 height="220px" viewBox="0 0 535 220" enable-background="new 0 0 535 220" xml:space="preserve">
<g id="Layer_1" display="none">
	<rect display="inline" fill="#D8D54E" width="100" height="110"/>
	<rect x="100" display="inline" fill="#3A64A3" width="112" height="220"/>
	<rect x="212" display="inline" fill="#182E4C" width="112" height="220"/>
	<rect y="110" display="inline" fill="#7C9123" width="100" height="30"/>
	<rect x="325" display="inline" fill="#A53850" width="70" height="70"/>
	<rect x="395" display="inline" fill="#7FA33A" width="70" height="70"/>
	<rect x="465" display="inline" fill="#983AA0" width="70" height="70"/>
	<rect x="325" y="70" display="inline" fill="#463AA3" width="70" height="70"/>
	<rect x="395" y="70" display="inline" fill="#3AA074" width="70" height="70"/>
	<rect x="465" y="70" display="inline" fill="#8B808C" width="70" height="70"/>
</g>
<g id="Layer_2">
	<g>
		<g>
			<polygon fill-rule="evenodd" clip-rule="evenodd" fill="#FFFFFF" points="61,54 51,54 51,44 49,44 49,54 39,54 39,56 49,56 
				49,66 51,66 51,56 61,56 			"/>
		</g>
	</g>
	<g>
		<g>
			<polygon fill-rule="evenodd" clip-rule="evenodd" fill="#FFFFFF" points="213.934,-0.023 211.988,1.921 320.108,109.988 
				211.988,218.056 213.934,220 324,109.988 			"/>
		</g>
	</g>
	<g>
		<g>
			<polygon fill-rule="evenodd" clip-rule="evenodd" fill="#FFFFFF" points="103.868,109.988 211.988,1.921 210.043,-0.023 
				99.977,109.988 210.043,220 211.988,218.056 			"/>
		</g>
	</g>
	<g>
		<g>
			<path fill-rule="evenodd" clip-rule="evenodd" fill="#FFFFFF" d="M367,41.5h-16v-10h4l2-2h-6h-2v2v10v2h2h16h1h1v-7l-2,2V41.5z
				 M364,33.5c0,1.438,0,4,0,4l7-5.5l-7-5.5c0,0,0,2.406,0,3c-5.031,0-9,4.997-9,8C355.969,36.465,356.969,33.5,364,33.5z"/>
		</g>
	</g>
	<g>
		<g>
			<polygon fill-rule="evenodd" clip-rule="evenodd" fill="#FFFFFF" points="54.008,122.242 50,126.25 45.992,122.242 45,123.234 
				50,128.235 55,123.234 			"/>
		</g>
	</g>
	<path fill="#FFFFFF" d="M438.741,30.49c0.009,0.195,0.012,0.389,0.012,0.587c0,5.995-4.536,12.91-12.83,12.91
		c-2.549,0-4.917-0.749-6.913-2.039c0.352,0.041,0.71,0.062,1.074,0.062c2.113,0,4.059-0.724,5.602-1.941
		c-1.973-0.034-3.64-1.348-4.213-3.149c0.275,0.054,0.559,0.083,0.85,0.083c0.41,0,0.808-0.058,1.188-0.161
		c-2.063-0.417-3.62-2.251-3.62-4.448v-0.058c0.609,0.338,1.305,0.544,2.045,0.567c-1.212-0.816-2.008-2.203-2.008-3.777
		c0-0.832,0.221-1.609,0.611-2.282c2.225,2.746,5.548,4.551,9.296,4.743c-0.077-0.333-0.116-0.682-0.116-1.035
		c0-2.507,2.02-4.538,4.51-4.538c1.297,0,2.469,0.553,3.291,1.434c1.029-0.203,1.992-0.581,2.865-1.102
		c-0.338,1.059-1.051,1.948-1.984,2.51c0.912-0.106,1.783-0.354,2.59-0.714C440.385,29.051,439.623,29.849,438.741,30.49z"/>
	<path fill="#FFFFFF" d="M496.123,30.637h1.994v-2.746c0-0.503-0.101-3.863,4.2-3.863h3.036v3.495h-2.232
		c-0.442,0-0.889,0.463-0.889,0.805v2.296h3.115c-0.125,1.761-0.381,3.37-0.381,3.37h-2.751v9.979h-4.099v-9.979h-1.994V30.637z"/>
	<g>
		<polygon fill="#FFFFFF" points="362.339,99.362 365.927,99.362 365.927,95.77 366.981,95.77 366.981,99.362 370.575,99.362 
			370.575,100.418 366.981,100.418 366.981,104.006 365.927,104.006 365.927,100.418 362.339,100.418 		"/>
		<path fill="#FFFFFF" d="M357.391,104.391c0-1.201,2.641-1.549,2.641-4.375c0-1.693-0.157-2.715-1.49-3.316
			c0-0.421,2.355-0.143,2.355-0.929h-5.157c0,0-5.226,0.127-5.226,4.551c0,4.421,4.565,3.909,4.565,3.909v1.121
			c0,0.451,0.616,0.3,0.691,1.219c-0.31,0-6.346-0.163-6.346,3.844c0,4.004,5.318,3.812,5.318,3.812s6.153,0.281,6.153-4.692
			C360.896,106.554,357.391,105.592,357.391,104.391z M352.931,100.578c-0.482-1.776,0.152-3.495,1.424-3.84
			c1.266-0.346,2.686,0.815,3.168,2.591c0.483,1.777-0.153,3.496-1.422,3.84C354.832,103.514,353.412,102.353,352.931,100.578z
			 M355.573,112.949c-2.129,0.145-3.941-0.996-4.048-2.549c-0.103-1.553,1.537-2.932,3.665-3.073
			c2.13-0.147,3.943,0.997,4.048,2.549C359.343,111.431,357.703,112.806,355.573,112.949z"/>
	</g>
</g>
</svg>
