<?xml version="1.0" encoding="utf-8"?>
<!-- Generator: Adobe Illustrator 16.0.0, SVG Export Plug-In . SVG Version: 6.00 Build 0)  -->
<!DOCTYPE svg PUBLIC "-//W3C//DTD SVG 1.1//EN" "http://www.w3.org/Graphics/SVG/1.1/DTD/svg11.dtd">
<svg version="1.1" xmlns="http://www.w3.org/2000/svg" xmlns:xlink="http://www.w3.org/1999/xlink" x="0px" y="0px" width="555px"
	 height="220px" viewBox="0 0 555 220" enable-background="new 0 0 555 220" xml:space="preserve">
<g id="Layer_1" display="none">
	<rect display="inline" fill="#D8D54E" width="120" height="110"/>
	<rect x="120" display="inline" fill="#3A64A3" width="112" height="220"/>
	<rect x="232" display="inline" fill="#182E4C" width="112" height="220"/>
	<rect y="110" display="inline" fill="#7C9123" width="120" height="30"/>
	<rect x="345" display="inline" fill="#A53850" width="70" height="70"/>
	<rect x="415" display="inline" fill="#7FA33A" width="70" height="70"/>
	<rect x="485" display="inline" fill="#983AA0" width="70" height="70"/>
	<rect x="345" y="70" display="inline" fill="#463AA3" width="70" height="70"/>
	<rect x="415" y="70" display="inline" fill="#3AA074" width="70" height="70"/>
	<rect x="485" y="70" display="inline" fill="#8B808C" width="70" height="70"/>
</g>
<g id="Layer_2">
	<g>
		<g>
			<polygon fill-rule="evenodd" clip-rule="evenodd" fill="#FFFFFF" points="233.934,-0.023 231.988,1.921 340.108,109.988 
				231.988,218.056 233.934,220 344,109.988 			"/>
		</g>
	</g>
	<g>
		<g>
			<polygon fill-rule="evenodd" clip-rule="evenodd" fill="#FFFFFF" points="123.868,109.988 231.988,1.921 230.043,-0.023 
				119.977,109.988 230.043,220 231.988,218.056 			"/>
		</g>
	</g>
	<g>
		<g>
			<path fill-rule="evenodd" clip-rule="evenodd" fill="#FFFFFF" d="M387,41.5h-16v-10h4l2-2h-6h-2v2v10v2h2h16h1h1v-7l-2,2V41.5z
				 M384,33.5c0,1.438,0,4,0,4l7-5.5l-7-5.5c0,0,0,2.406,0,3c-5.031,0-9,4.997-9,8C375.969,36.465,376.969,33.5,384,33.5z"/>
		</g>
	</g>
	<g>
		<g>
			<polygon fill-rule="evenodd" clip-rule="evenodd" fill="#FFFFFF" points="64.008,122.242 60,126.25 55.992,122.242 55,123.234 
				60,128.235 65,123.234 			"/>
		</g>
	</g>
	<path fill="#FFFFFF" d="M458.741,30.49c0.009,0.195,0.012,0.389,0.012,0.587c0,5.995-4.536,12.91-12.83,12.91
		c-2.549,0-4.917-0.749-6.913-2.039c0.352,0.041,0.71,0.062,1.074,0.062c2.113,0,4.059-0.724,5.602-1.941
		c-1.973-0.034-3.64-1.348-4.213-3.149c0.275,0.054,0.559,0.083,0.85,0.083c0.41,0,0.808-0.058,1.188-0.161
		c-2.063-0.417-3.62-2.251-3.62-4.448v-0.058c0.609,0.338,1.305,0.544,2.045,0.567c-1.212-0.816-2.008-2.203-2.008-3.777
		c0-0.832,0.221-1.609,0.611-2.282c2.225,2.746,5.548,4.551,9.296,4.743c-0.077-0.333-0.116-0.682-0.116-1.035
		c0-2.507,2.02-4.538,4.51-4.538c1.297,0,2.469,0.553,3.291,1.434c1.029-0.203,1.992-0.581,2.865-1.102
		c-0.338,1.059-1.051,1.948-1.984,2.51c0.912-0.106,1.783-0.354,2.59-0.714C460.385,29.051,459.623,29.849,458.741,30.49z"/>
	<path fill="#FFFFFF" d="M516.123,30.637h1.994v-2.746c0-0.503-0.101-3.863,4.2-3.863h3.036v3.495h-2.232
		c-0.442,0-0.889,0.463-0.889,0.805v2.296h3.115c-0.125,1.761-0.381,3.37-0.381,3.37h-2.751v9.979h-4.099v-9.979h-1.994V30.637z"/>
	<g>
		<polygon fill="#FFFFFF" points="382.339,99.362 385.927,99.362 385.927,95.77 386.981,95.77 386.981,99.362 390.575,99.362 
			390.575,100.418 386.981,100.418 386.981,104.006 385.927,104.006 385.927,100.418 382.339,100.418 		"/>
		<path fill="#FFFFFF" d="M377.391,104.391c0-1.201,2.641-1.549,2.641-4.375c0-1.693-0.157-2.715-1.49-3.316
			c0-0.421,2.355-0.143,2.355-0.929h-5.157c0,0-5.226,0.127-5.226,4.551c0,4.421,4.565,3.909,4.565,3.909v1.121
			c0,0.451,0.616,0.3,0.691,1.219c-0.31,0-6.346-0.163-6.346,3.844c0,4.004,5.318,3.812,5.318,3.812s6.153,0.281,6.153-4.692
			C380.896,106.554,377.391,105.592,377.391,104.391z M372.931,100.578c-0.482-1.776,0.152-3.495,1.424-3.84
			c1.266-0.346,2.686,0.815,3.168,2.591c0.483,1.777-0.153,3.496-1.422,3.84C374.832,103.514,373.412,102.353,372.931,100.578z
			 M375.573,112.949c-2.129,0.145-3.941-0.996-4.048-2.549c-0.103-1.553,1.537-2.932,3.665-3.073
			c2.13-0.147,3.943,0.997,4.048,2.549C379.343,111.431,377.703,112.806,375.573,112.949z"/>
	</g>
	<g>
		<g>
			<path fill="#006D20" d="M59.867,32.381l-1.393,5.582c1.579,0.394,6.448,1.999,7.237-1.16
				C66.532,33.509,61.445,32.775,59.867,32.381z M57.771,40.781l-1.537,6.156c1.896,0.471,7.748,2.348,8.612-1.124
				C65.749,42.191,59.667,41.254,57.771,40.781z M66.164,15.763c-13.659-3.403-27.496,4.906-30.899,18.56
				c-3.408,13.651,4.906,27.479,18.564,30.882c13.663,3.405,27.5-4.903,30.906-18.556C88.14,32.997,79.827,19.167,66.164,15.763z
				 M71.238,36.854c-0.367,2.482-1.744,3.684-3.572,4.105c2.51,1.306,3.788,3.309,2.57,6.781c-1.51,4.312-5.098,4.676-9.868,3.774
				l-1.158,4.637l-2.798-0.697l1.143-4.575c-0.725-0.18-1.466-0.372-2.229-0.578l-1.147,4.597l-2.794-0.697l1.158-4.646
				c-0.653-0.167-1.317-0.345-1.994-0.515l-3.642-0.907l1.389-3.201c0,0,2.062,0.548,2.034,0.508
				c0.792,0.196,1.144-0.32,1.282-0.664l1.83-7.331c0.103,0.025,0.203,0.05,0.296,0.073c-0.111-0.044-0.212-0.073-0.291-0.093
				l1.306-5.233c0.034-0.593-0.171-1.343-1.305-1.626c0.044-0.029-2.032-0.505-2.032-0.505l0.745-2.986l3.858,0.963l-0.003,0.015
				c0.58,0.144,1.177,0.28,1.786,0.419l1.147-4.591l2.796,0.697l-1.124,4.502c0.751,0.171,1.507,0.344,2.242,0.527l1.115-4.473
				l2.798,0.697l-1.146,4.593C69.163,31.64,71.746,33.463,71.238,36.854z"/>
		</g>
	</g>
</g>
</svg>
